<svg id="Layer_1" enable-background="new 0 0 511 511" height="512" viewBox="0 0 511 511" width="512" xmlns="http://www.w3.org/2000/svg"><g><path d="m159.5 0h-64c-8.28 0-15 6.72-15 15v115.55c0 5.59 3.11 10.72 8.07 13.3 2.18 1.14 4.56 1.7 6.93 1.7 3.02 0 6.03-.91 8.6-2.71l64-44.81c4.01-2.81 6.4-7.4 6.4-12.29v-70.74c0-8.28-6.72-15-15-15z" fill="#7e5d40"/><path d="m438.5 194.7v236.3c0 8.28-6.72 15-15 15h-336c-8.28 0-15-6.72-15-15v-239.51c0-4.24 5.74-4.5 8.89-7.34l164.05-124.27c2.87-2.58 6.47-3.88 10.06-3.88 3.6 0 7.2 1.3 10.06 3.88l165.51 127.02c3.15 2.84 7.43 3.56 7.43 7.8z" fill="#f1f6f7"/><path d="m255.5 56c3.6 0 7.2 1.3 10.06 3.88l165.51 127.02c3.15 2.84 7.43 3.56 7.43 7.8v236.3c0 8.28-6.72 15-15 15h-168" fill="#dceaec"/><path d="m350.5 303v112c0 8.28-6.72 15-15 15h-160c-8.28 0-15-6.72-15-15v-112c0-8.28 6.72-15 15-15h160c8.28 0 15 6.72 15 15z" fill="#7e5d40"/><path d="m350.5 303v112c0 8.28-6.72 15-15 15h-80v-142h80c8.28 0 15 6.72 15 15z" fill="#684d34"/><circle cx="255.5" cy="207" fill="#7accfe" r="47"/><path d="m302.5 207c0 25.92-21.08 47-47 47v-94c25.92 0 47 21.08 47 47z" fill="#4097fe"/><path d="m510.5 402.91v93.09c0 8.28-6.72 15-15 15h-480c-8.28 0-15-6.72-15-15v-93.09c0-4.33 1.87-8.45 5.14-11.3l40-34.91c5.65-4.93 14.07-4.93 19.72 0 13.042 11.374 20.206 17.638 30.14 26.3 39.803-34.732 24.359-21.251 30.14-26.3 5.65-4.93 14.07-4.93 19.72 0 .19.166 27.816 24.271 30.14 26.3 30.732-26.809 29.474-25.718 30.14-26.3 5.65-4.93 14.07-4.93 19.72 0 10.112 8.813 30.137 26.299 30.14 26.3 8.81-7.697 22.781-19.876 30.14-26.3 5.65-4.93 14.07-4.93 19.72 0 .19.166 27.816 24.271 30.14 26.3 30.732-26.809 29.474-25.718 30.14-26.3 5.65-4.93 14.07-4.93 19.72 0 .19.166 27.816 24.271 30.14 26.3 30.732-26.809 29.474-25.718 30.14-26.3 5.65-4.93 14.07-4.93 19.72 0l40 34.91c3.27 2.85 5.14 6.97 5.14 11.3z" fill="#ffe278"/><g fill="#ffb454"><path d="m510.5 402.91v93.09c0 8.28-6.72 15-15 15h-239.98c0-129.637-.18-128.15-.08-128.05s-1.355 1.296 30.2-26.25c5.65-4.93 14.07-4.93 19.72 0 .19.166 27.816 24.271 30.14 26.3 30.732-26.809 29.474-25.718 30.14-26.3 5.65-4.93 14.07-4.93 19.72 0 .19.166 27.816 24.271 30.14 26.3 30.732-26.809 29.474-25.718 30.14-26.3 5.65-4.93 14.07-4.93 19.72 0l40 34.91c3.27 2.85 5.14 6.97 5.14 11.3z"/><path d="m111.5 369.03v141.97h-30v-140.22c2.55 2.23 6.11 5.34 14 12.22 10.44-9.11 12.22-10.67 16-13.97z"/><path d="m190.5 369.9v141.1h-30v-141.08c2.67 2.31 6.04 5.26 15 13.08 9.48-8.27 11.82-10.32 15-13.1z"/><path d="m270.5 369.91v141.09h-30v-141.09c.784.685 14.161 12.373 14.94 13.04.101.101 14.96-12.952 15.06-13.04z"/></g><path d="m350.5 369.9v141.1h-30v-141.08c2.67 2.31 6.04 5.26 15 13.08 9.48-8.27 11.82-10.32 15-13.1z" fill="#ff8e00"/><path d="m430.5 369.9v141.1h-30v-141.08c2.67 2.31 6.04 5.26 15 13.08 9.48-8.27 11.82-10.32 15-13.1z" fill="#ff8e00"/><path d="m269.5 370.78c1.429-1.256 1-16.492 1 140.22h-15c0-60.49-.04-101.01-.06-128.05.1.1-.996.976 14.06-12.17z" fill="#ff8e00"/><path d="m319.89 45.3 184.21 128.98c6.79 4.75 8.44 14.11 3.69 20.89l-19.51 27.85c-4.75 6.79-14.1 8.44-20.89 3.69" fill="#ff3c5a"/><path d="m246.9 6.23-240 168.05c-6.79 4.75-8.44 14.11-3.69 20.89l19.51 27.86c4.75 6.79 14.1 8.44 20.89 3.69 67.763-47.45 135.527-94.9 203.29-142.35.705-.662 3.679-3.302 8.296-3.414 5.002-.121 8.266 2.815 8.904 3.414l203.29 142.34c6.79 4.75 16.14 3.1 20.89-3.69l19.51-27.85c4.75-6.78 3.1-16.14-3.69-20.89l-184.21-128.98-55.79-39.07c-.921-.714-4.113-3.005-8.774-2.947-4.447.055-7.481 2.214-8.426 2.947z" fill="#ff3c5a"/></g></svg>
